# xmcd
#
# Track frame offsets:
#	150
#	7663
#	24047
#	41563
#	59823
#	74571
#	99615
#	123248
#	139822
#	157676
#	172437
#	189517
#	207146
#	239031
#
# Disc length: 3591 seconds
#
# Revision: 0
# Processed by: cddbd v1.5.1PL2 Copyright (c) Steve Scherf et al.
# Submitted via: dBpowerAMP V4.0
#
DISCID=c10e050e
DTITLE=Chimène Badi - Live à l'Olympia CD 1
DYEAR=2006
DGENRE=Chanson
TTITLE0=Chimes (intro)
TTITLE1=Je ne sais pas son nom
TTITLE2=Tout contre toi
TTITLE3=Le mot fin
TTITLE4=Je vais te chercher
TTITLE5=On a les amours qu'on mérite
TTITLE6=L'accordéoniste
TTITLE7=En attendant
TTITLE8=Si j'avais su t'aimer
TTITLE9=Le jour d'après
TTITLE10=Je sais
TTITLE11=Je ne cherche pas
TTITLE12=Répondez moi
TTITLE13=DATA
EXTD=
EXTT0=
EXTT1=
EXTT2=
EXTT3=
EXTT4=
EXTT5=
EXTT6=
EXTT7=
EXTT8=
EXTT9=
EXTT10=
EXTT11=
EXTT12=
EXTT13=
PLAYORDER=
